<svg id="Layer_1" data-name="Layer 1" xmlns="http://www.w3.org/2000/svg" viewBox="0 0 76.09 76.09"><defs><style>.cls-1{fill:#b14e2f;}</style></defs><title>logo</title><path class="cls-1" d="M39,76.62a38,38,0,1,1,38-38A38.09,38.09,0,0,1,39,76.62ZM39,4A34.54,34.54,0,1,0,73.54,38.58,34.58,34.58,0,0,0,39,4Z" transform="translate(-0.95 -0.53)"/><polygon class="cls-1" points="3.82 49.33 1.54 47.06 18.44 30.16 30.93 42.59 28.66 44.87 18.44 34.72 3.82 49.33"/><polygon class="cls-1" points="72.27 49.33 57.65 34.72 47.38 44.96 45.11 42.68 57.65 30.16 74.55 47.06 72.27 49.33"/><polygon class="cls-1" points="63.52 62.64 38.05 37.17 12.58 62.64 10.3 60.36 38.05 32.61 65.79 60.36 63.52 62.64"/><rect class="cls-1" x="42.61" y="27.84" width="3.68" height="1.68" transform="translate(-8.22 39.29) rotate(-45)"/><polygon class="cls-1" points="53.51 36.82 38.13 21.46 23.05 36.48 20.78 34.2 38.14 16.91 55.79 34.54 53.51 36.82"/><rect class="cls-1" x="34.57" y="25.27" width="1.68" height="3.68" transform="translate(-9.74 32.56) rotate(-45.15)"/><rect class="cls-1" x="36.22" y="23.6" width="1.68" height="3.68" transform="translate(-8.07 33.24) rotate(-45.15)"/><rect class="cls-1" x="37.88" y="21.94" width="1.68" height="3.67" transform="translate(-6.39 33.95) rotate(-45.18)"/><path class="cls-1" d="M37.77,56.47h-.14v5.86H35.31V51.4h2.25l2.67,6.06h.14V51.4h2.32V62.33H40.44Z" transform="translate(-0.95 -0.53)"/></svg>