<svg id="Layer_1" data-name="Layer 1" xmlns="http://www.w3.org/2000/svg" viewBox="0 0 81.92 108.25"><defs><style>.cls-1{fill:#b14e2f;}</style></defs><title>logo2</title><path class="cls-1" d="M53.19,63.13H50.74L31.86,52.06v4.85l2.76,4.67v1.55H27.24V61.6l2.64-4.68V50.58l-2.48-5V44.26h6.92l16.9,10.1V50.5l-2.78-4.67V44.26h7.21L55.53,46l-2.34,4.47Zm-23.44-2h2.32l-1.19-2Zm1.86-11.53,19.61,11.5V56.66L33.77,46.24H29.83ZM51,46.24l1.17,2,1-2Z" transform="translate(-0.48 -0.19)"/><path class="cls-1" d="M44.89,52.88,38,48.76v-6l-2-2.73v-1.6H46.87v1.6l-2,2.73ZM40,47.64l2.95,1.76V42.16l1.24-1.71H38.73L40,42.16Z" transform="translate(-0.48 -0.19)"/><path class="cls-1" d="M46.87,68.92H36v-1.6l2-2.73V53.37l6.89,4v7.18l2,2.73Zm-8.15-2h5.43l-1.24-1.71V58.54L40,56.82v8.42Z" transform="translate(-0.48 -0.19)"/><path class="cls-1" d="M18.63,83.15h-.1v6.78H16.93V78h1.56l1.85,6.78h.1V78H22v12H20.49Z" transform="translate(-0.48 -0.19)"/><path class="cls-1" d="M29.61,87.59l0,.29a2.47,2.47,0,0,1-.1.41,2.63,2.63,0,0,1-.16.47,2.24,2.24,0,0,1-.7.89,2.16,2.16,0,0,1-1.35.41,2.1,2.1,0,0,1-2.06-1.3,2.64,2.64,0,0,1-.16-.47c0-.13-.06-.27-.08-.41l0-.29V80.32L25,80c0-.14,0-.28.08-.41a3.29,3.29,0,0,1,.16-.49,2.28,2.28,0,0,1,.7-.88,2.25,2.25,0,0,1,1.37-.41,2.18,2.18,0,0,1,1.35.41,2.29,2.29,0,0,1,.7.88,3.27,3.27,0,0,1,.16.49,2.56,2.56,0,0,1,.1.41l0,.29Zm-1.77-7.28a.65.65,0,0,0,0-.15l0-.16a.53.53,0,0,0-1,0,.81.81,0,0,0,0,.16l0,.24v7.2a.56.56,0,0,0,0,.15.81.81,0,0,0,0,.16.53.53,0,0,0,1,0l0-.16,0-.24Z" transform="translate(-0.48 -0.19)"/><path class="cls-1" d="M35.62,89.93l-.91-5h-.47v5H32.48V78h1.76q3,0,3,3.45,0,2-1,2.72l1.12,5.79Zm-.55-10a1.11,1.11,0,0,0-.42-.21l-.21,0h-.2v3.55h.2l.21,0a1.11,1.11,0,0,0,.42-.21,2.71,2.71,0,0,0,0-3.06Z" transform="translate(-0.48 -0.19)"/><path class="cls-1" d="M39.64,79.78V78h5.07v1.8H43.06V89.93H41.3V79.78Z" transform="translate(-0.48 -0.19)"/><path class="cls-1" d="M47.3,78h4v1.8H49.05v3.14h1.63v1.92H49.05v3.28h2.26v1.81h-4Z" transform="translate(-0.48 -0.19)"/><path class="cls-1" d="M55.76,83.15h-.1v6.78H54.05V78h1.56l1.85,6.78h.1V78h1.61v12H57.61Zm-.46-6.31A1.07,1.07,0,0,0,55,77v-1.2s.09-.08.26-.16a1.41,1.41,0,0,1,.6-.15,1.53,1.53,0,0,1,.36,0l.18,0,.18.07.36.1.36.07a1.52,1.52,0,0,0,.6-.13,1.07,1.07,0,0,0,.26-.13v1.2s-.09.07-.26.15a1.29,1.29,0,0,1-.6.16A1.53,1.53,0,0,1,57,77l-.7-.21a1.58,1.58,0,0,0-.37,0A1.65,1.65,0,0,0,55.3,76.84Z" transform="translate(-0.48 -0.19)"/><path class="cls-1" d="M66.73,87.59l0,.29a2.46,2.46,0,0,1-.1.41,2.64,2.64,0,0,1-.16.47,2.24,2.24,0,0,1-.7.89,2.16,2.16,0,0,1-1.35.41,2.1,2.1,0,0,1-2.06-1.3,2.63,2.63,0,0,1-.16-.47c0-.13-.06-.27-.08-.41l0-.29V80.32l0-.29c0-.14,0-.28.08-.41a3.27,3.27,0,0,1,.16-.49,2.28,2.28,0,0,1,.7-.88,2.25,2.25,0,0,1,1.37-.41,2.18,2.18,0,0,1,1.35.41,2.29,2.29,0,0,1,.7.88,3.28,3.28,0,0,1,.16.49,2.55,2.55,0,0,1,.1.41l0,.29ZM65,80.31a.65.65,0,0,0,0-.15l0-.16a.53.53,0,0,0-1,0,.81.81,0,0,0,0,.16l0,.24v7.2a.57.57,0,0,0,0,.15.81.81,0,0,0,0,.16.53.53,0,0,0,1,0l0-.16,0-.24Z" transform="translate(-0.48 -0.19)"/><path class="cls-1" d="M19.61,17.55h1.76v12H19.61Z" transform="translate(-0.48 -0.19)"/><path class="cls-1" d="M26,22.72h-.1V29.5H24.3V17.55h1.56l1.85,6.78h.1V17.55h1.61v12H27.87Z" transform="translate(-0.48 -0.19)"/><path class="cls-1" d="M35.22,21.84v-2a.82.82,0,0,1,0-.15,1,1,0,0,0,0-.16.53.53,0,0,0-1,0,1,1,0,0,0,0,.16L34,20v7.35a.82.82,0,0,1,0,.15,1,1,0,0,0,0,.16.53.53,0,0,0,1,0,1,1,0,0,0,0-.16l0-.25V25h-.7V23.55H37v6h-1l-.21-.57a1.68,1.68,0,0,1-1.37.7,2,2,0,0,1-1.27-.41,2.07,2.07,0,0,1-.6-.89,2.68,2.68,0,0,1-.13-.47c0-.13,0-.27,0-.41a.8.8,0,0,1,0-.16v-7.4l0-.29q0-.21.08-.41a5.1,5.1,0,0,1,.18-.49,2.15,2.15,0,0,1,.68-.88,2.5,2.5,0,0,1,2.73,0,2.15,2.15,0,0,1,.68.88,2.38,2.38,0,0,1,.18.49q0,.2.08.41l0,.29v2Z" transform="translate(-0.48 -0.19)"/><path class="cls-1" d="M39.92,17.55h4v1.8H41.67v3.14H43.3v1.92H41.67v3.28h2.26V29.5h-4Z" transform="translate(-0.48 -0.19)"/><path class="cls-1" d="M48.38,22.72h-.1V29.5H46.67V17.55h1.56l1.85,6.78h.1V17.55h1.61v12H50.23Z" transform="translate(-0.48 -0.19)"/><path class="cls-1" d="M54.74,17.55H56.5v12H54.74Z" transform="translate(-0.48 -0.19)"/><path class="cls-1" d="M64.05,27.16l0,.29a2.46,2.46,0,0,1-.1.41,2.64,2.64,0,0,1-.16.47,2.24,2.24,0,0,1-.7.89,2.16,2.16,0,0,1-1.35.41,2.1,2.1,0,0,1-2.06-1.3,2.65,2.65,0,0,1-.16-.47c0-.13-.06-.27-.08-.41l0-.29V19.89l0-.29c0-.14,0-.28.08-.41a3.29,3.29,0,0,1,.16-.49,2.28,2.28,0,0,1,.7-.88,2.25,2.25,0,0,1,1.37-.41,2.18,2.18,0,0,1,1.35.41,2.29,2.29,0,0,1,.7.88,3.27,3.27,0,0,1,.16.49,2.55,2.55,0,0,1,.1.41l0,.29Zm-1.77-7.28a.65.65,0,0,0,0-.15l0-.16a.53.53,0,0,0-1,0,.82.82,0,0,0,0,.16l0,.24v7.2a.56.56,0,0,0,0,.15.81.81,0,0,0,0,.16.53.53,0,0,0,1,0l0-.16,0-.24Z" transform="translate(-0.48 -0.19)"/><path class="cls-1" d="M9.67,50.28h1a1.67,1.67,0,0,1,1.21.44,2.1,2.1,0,0,1,.56,1.61,2.13,2.13,0,0,1-.56,1.62,1.66,1.66,0,0,1-1.21.44v2.73h-1Zm1,3.08a.71.71,0,0,0,.61-.21,1.47,1.47,0,0,0,.14-.78,1.68,1.68,0,0,0-.14-.82.69.69,0,0,0-.61-.24Z" transform="translate(-0.48 -0.19)"/><path class="cls-1" d="M10.69,57.14h-1V50.26h1a1.7,1.7,0,0,1,1.22.44,2.13,2.13,0,0,1,.57,1.63A2.15,2.15,0,0,1,11.89,54a1.69,1.69,0,0,1-1.2.44Zm-1,0h1V54.36h0a1.65,1.65,0,0,0,1.19-.43,2.11,2.11,0,0,0,.55-1.6,2.09,2.09,0,0,0-.55-1.59,1.66,1.66,0,0,0-1.19-.43h-1Zm1-3.71h0v-2.1h0a.71.71,0,0,1,.63.25,1.69,1.69,0,0,1,.14.83,1.47,1.47,0,0,1-.14.79A.73.73,0,0,1,10.67,53.38Zm0-2.05v2a.67.67,0,0,0,.57-.2,1.46,1.46,0,0,0,.14-.77,1.67,1.67,0,0,0-.14-.81A.65.65,0,0,0,10.69,51.33Z" transform="translate(-0.48 -0.19)"/><path class="cls-1" d="M13,56.08h1v1H13Z" transform="translate(-0.48 -0.19)"/><path class="cls-1" d="M14,57.14H13V56.06h1Zm-1,0h.93v-1H13Z" transform="translate(-0.48 -0.19)"/><path class="cls-1" d="M16.94,57.11l1-6.83H19.2l1,6.83h-1l-.19-1.39h-1l-.19,1.39Zm1.67-4.78h-.06l-.32,2.33h.69Z" transform="translate(-0.48 -0.19)"/><path class="cls-1" d="M20.26,57.14h-1v0l-.18-1.37h-.93l-.19,1.39h-1v0l1-6.85h1.27v0Zm-1,0h.93l-1-6.78H18l-1,6.78h.93l.19-1.39h1v0ZM19,54.68h-.74v0l.32-2.35h.1v0Zm-.69,0h.63l-.31-2.29h0Z" transform="translate(-0.48 -0.19)"/><path class="cls-1" d="M21.54,56.08h1v1h-1Z" transform="translate(-0.48 -0.19)"/><path class="cls-1" d="M22.53,57.14h-1V56.06h1Zm-1,0h.93v-1h-.93Z" transform="translate(-0.48 -0.19)"/><path class="cls-1" d="M61.26,50.74a1.31,1.31,0,0,1,2.17.08,1.85,1.85,0,0,1,.2.59,3.49,3.49,0,0,1,0,.6l-1,.09a2.34,2.34,0,0,0-.07-.66c-.07-.22-.18-.33-.33-.33s-.34.23-.34.68a1.52,1.52,0,0,0,.25.73c.06.11.15.24.25.4l.63.94a4.69,4.69,0,0,1,.3.52,2.39,2.39,0,0,1,.3,1.07,2.12,2.12,0,0,1-.29,1.2,1.23,1.23,0,0,1-1.1.52,1.27,1.27,0,0,1-1.22-.61,2,2,0,0,1-.2-.64,4.93,4.93,0,0,1,0-.73l1-.09a2.72,2.72,0,0,0,.08.79c.07.25.2.37.39.37s.41-.25.41-.75a1.57,1.57,0,0,0-.26-.74c-.06-.11-.15-.25-.26-.41l-.29-.43-.34-.52q-.18-.29-.3-.53A2.52,2.52,0,0,1,61,51.81,1.87,1.87,0,0,1,61.26,50.74Z" transform="translate(-0.48 -0.19)"/><path class="cls-1" d="M62.28,57.21A1.3,1.3,0,0,1,61,56.58a2,2,0,0,1-.2-.65,5,5,0,0,1,0-.74v0h0l1-.1v0a2.68,2.68,0,0,0,.08.78c.07.24.19.36.37.36s.39-.24.39-.73a1.55,1.55,0,0,0-.26-.73c-.07-.12-.15-.25-.26-.41l-.29-.43-.34-.52c-.12-.19-.22-.37-.3-.53a2.57,2.57,0,0,1-.28-1.09,1.9,1.9,0,0,1,.3-1.08,1.19,1.19,0,0,1,1-.54h0a1.18,1.18,0,0,1,1.12.63,1.89,1.89,0,0,1,.21.6,3.51,3.51,0,0,1,0,.61v0h0l-1,.1v0a2.34,2.34,0,0,0-.07-.65c-.07-.21-.17-.31-.3-.31s-.32.23-.32.66a1.51,1.51,0,0,0,.25.72c.06.11.15.25.25.4l.63.94a4.7,4.7,0,0,1,.3.52,2.42,2.42,0,0,1,.3,1.08,2.15,2.15,0,0,1-.29,1.21A1.25,1.25,0,0,1,62.28,57.21Zm-1.44-2a4.91,4.91,0,0,0,0,.71,2,2,0,0,0,.19.63,1.26,1.26,0,0,0,1.2.6,1.21,1.21,0,0,0,1.09-.51,2.1,2.1,0,0,0,.28-1.18,2.37,2.37,0,0,0-.29-1.06,4.67,4.67,0,0,0-.3-.52L62.43,53c-.1-.15-.19-.29-.25-.4a1.55,1.55,0,0,1-.25-.75c0-.46.12-.69.37-.7s.28.12.35.34a2.33,2.33,0,0,1,.07.64l.94-.09a3.49,3.49,0,0,0,0-.58,1.85,1.85,0,0,0-.2-.59,1.14,1.14,0,0,0-1.08-.6h0a1.15,1.15,0,0,0-1,.52A1.85,1.85,0,0,0,61,51.81a2.51,2.51,0,0,0,.28,1.07c.08.16.18.34.3.53l.34.52.29.43c.11.16.2.29.26.41a1.59,1.59,0,0,1,.26.75c0,.51-.15.78-.43.78s-.34-.13-.41-.39a2.65,2.65,0,0,1-.09-.77Z" transform="translate(-0.48 -0.19)"/><path class="cls-1" d="M65,56.08h1v1H65Z" transform="translate(-0.48 -0.19)"/><path class="cls-1" d="M66,57.13H65V56.06h1Zm-1,0H66v-1H65Z" transform="translate(-0.48 -0.19)"/><path class="cls-1" d="M69.24,57.11V50.28h.88a2,2,0,0,1,1.37.4,1.84,1.84,0,0,1,.47,1.41,1.78,1.78,0,0,1-.62,1.41s0,0,.11.07a1.26,1.26,0,0,1,.24.25,1.87,1.87,0,0,1,.23.51,2.91,2.91,0,0,1,.11.84,2.36,2.36,0,0,1-.32,1.33,1.44,1.44,0,0,1-1.23.6Zm1.45-5.73a.57.57,0,0,0-.25-.09h-.2V53.1h.2a.57.57,0,0,0,.25-.09,1.25,1.25,0,0,0,0-1.62Zm0,2.74a.6.6,0,0,0-.25-.09h-.2v2.1h.2a.6.6,0,0,0,.25-.09,1.18,1.18,0,0,0,.3-.95A1.16,1.16,0,0,0,70.68,54.12Z" transform="translate(-0.48 -0.19)"/><path class="cls-1" d="M70.47,57.13H69.21V50.26h.91a2,2,0,0,1,1.38.41A1.87,1.87,0,0,1,72,52.09a1.81,1.81,0,0,1-.6,1.4l.08.07a1.28,1.28,0,0,1,.25.25,1.89,1.89,0,0,1,.24.52,2.94,2.94,0,0,1,.11.84,2.39,2.39,0,0,1-.33,1.34,1.47,1.47,0,0,1-1.25.61Zm-1.21,0h1.21a1.43,1.43,0,0,0,1.21-.59A2.35,2.35,0,0,0,72,55.18a2.9,2.9,0,0,0-.11-.83,1.88,1.88,0,0,0-.23-.5,1.24,1.24,0,0,0-.24-.24l-.09-.07,0,0v-.07h0a1.77,1.77,0,0,0,.61-1.39,1.82,1.82,0,0,0-.46-1.39,2,2,0,0,0-1.35-.4h-.86Zm1.06-.95h-.11V54h.22a.61.61,0,0,1,.26.1,1.18,1.18,0,0,1,.31,1,1.2,1.2,0,0,1-.31,1,.61.61,0,0,1-.26.1Zm-.06,0h.17a.57.57,0,0,0,.24-.09,1.16,1.16,0,0,0,.29-.93,1.14,1.14,0,0,0-.29-.93.57.57,0,0,0-.24-.09h-.17Zm.06-3h-.11V51.25h.22a.6.6,0,0,1,.26.1,1.27,1.27,0,0,1,0,1.65.6.6,0,0,1-.26.1Zm-.06,0h.17a.55.55,0,0,0,.24-.09,1.23,1.23,0,0,0,0-1.58.55.55,0,0,0-.24-.09h-.17Z" transform="translate(-0.48 -0.19)"/><path class="cls-1" d="M73.36,56.08h1v1h-1Z" transform="translate(-0.48 -0.19)"/><path class="cls-1" d="M74.36,57.13h-1V56.06h1Zm-1,0h.93v-1h-.93Z" transform="translate(-0.48 -0.19)"/><path class="cls-1" d="M44.66,108.45H38.22A37.78,37.78,0,0,1,.48,70.71V37.93A37.78,37.78,0,0,1,38.22.19h6.44A37.78,37.78,0,0,1,82.4,37.93V70.71A37.78,37.78,0,0,1,44.66,108.45ZM38.22,3.1A34.87,34.87,0,0,0,3.39,37.93V70.71a34.87,34.87,0,0,0,34.83,34.83h6.44A34.87,34.87,0,0,0,79.5,70.71V37.93A34.87,34.87,0,0,0,44.66,3.1Z" transform="translate(-0.48 -0.19)"/></svg>