<svg id="Layer_1" data-name="Layer 1" xmlns="http://www.w3.org/2000/svg" viewBox="0 0 559.26 74.76"><defs><style>.cls-1{fill:#b14e2f;}</style></defs><title>logo1</title><path class="cls-1" d="M.85,58.69h.78l13.5,14.76a11.72,11.72,0,0,0,6.46-3.79A11.2,11.2,0,0,0,24,62.18,15.89,15.89,0,0,0,22.22,55a42.22,42.22,0,0,0-4.37-6.89q-2.62-3.4-5.68-6.85a89.05,89.05,0,0,1-5.68-7.09A41,41,0,0,1,2.12,26.5,21.11,21.11,0,0,1,.37,18a18.06,18.06,0,0,1,1.51-7.57,16.82,16.82,0,0,1,9.76-9.08A19.57,19.57,0,0,1,18.43.14,47.94,47.94,0,0,1,24.3.58,46.11,46.11,0,0,1,31.15,2V16.36h-.68L17.94,1.5a11.15,11.15,0,0,0-5.58,3.88,11.87,11.87,0,0,0-2.18,7.48,14.07,14.07,0,0,0,1.75,6.75,44.22,44.22,0,0,0,4.37,6.55q2.62,3.3,5.63,6.75a81.84,81.84,0,0,1,5.63,7.23,43.41,43.41,0,0,1,4.37,8A22.89,22.89,0,0,1,33.67,57a17.59,17.59,0,0,1-1.55,7.57,16.75,16.75,0,0,1-4.18,5.58,18.31,18.31,0,0,1-6.17,3.5,23.41,23.41,0,0,1-7.62,1.21A55.12,55.12,0,0,1,8,74.46,38.69,38.69,0,0,1,.85,73Z" transform="translate(-0.37 -0.14)"/><path class="cls-1" d="M44.84,73.93v-.68l4.66-6.41V8.2L44.84,1.79V1.11H65.72v.68L61.06,8.2V66.84l4.66,6.41v.68Z" transform="translate(-0.37 -0.14)"/><path class="cls-1" d="M78,73.93v-.68l4.66-6.41V8.2L78,1.79V1.11h36.41V15.68h-.68L101.25,2.47h-7V35.09l16.31-5.15h.68V41.7h-.68L94.26,36.45v36h7l12.53-13.11h.68V73.93Z" transform="translate(-0.37 -0.14)"/><path class="cls-1" d="M158.83,73.93a66.9,66.9,0,0,1-3.25-8.11q-1.51-4.51-2.77-9.27t-2.23-9.42q-1-4.66-1.46-8.45a36.8,36.8,0,0,1-4.56.29h-2V66.84l4.18,6.41v.68H126.3v-.68L131,66.84V8.2l-4.66-6.41V1.11h17.77A34.69,34.69,0,0,1,153,2.23a22.66,22.66,0,0,1,7.48,3.45,17.46,17.46,0,0,1,5.19,5.87,17.44,17.44,0,0,1,1.94,8.5,18.32,18.32,0,0,1-1.17,6.75A16.65,16.65,0,0,1,163.2,32a18.54,18.54,0,0,1-4.76,3.74A23.64,23.64,0,0,1,152.52,38h7.57q.68,3.79,1.65,8.16T164,55.1q1.31,4.56,3,9.17t3.74,9v.68ZM144.56,37.52a9.1,9.1,0,0,0,4.86-1.31A10.63,10.63,0,0,0,153,32.57,18.65,18.65,0,0,0,155.1,27a31.54,31.54,0,0,0,.73-7,32.18,32.18,0,0,0-.73-7A18.64,18.64,0,0,0,153,7.42a10.63,10.63,0,0,0-3.54-3.64,9.1,9.1,0,0,0-4.85-1.31h-2V37.52Z" transform="translate(-0.37 -0.14)"/><path class="cls-1" d="M213.69,73.93a66.9,66.9,0,0,1-3.25-8.11q-1.51-4.51-2.77-9.27t-2.23-9.42q-1-4.66-1.46-8.45a36.8,36.8,0,0,1-4.56.29h-2V66.84l4.18,6.41v.68H181.17v-.68l4.66-6.41V8.2l-4.66-6.41V1.11h17.77a34.69,34.69,0,0,1,8.88,1.12,22.66,22.66,0,0,1,7.48,3.45,17.46,17.46,0,0,1,5.19,5.87,17.44,17.44,0,0,1,1.94,8.5,18.32,18.32,0,0,1-1.17,6.75,16.65,16.65,0,0,1-3.2,5.19,18.54,18.54,0,0,1-4.76,3.74A23.64,23.64,0,0,1,207.38,38H215q.68,3.79,1.65,8.16t2.28,8.93q1.31,4.56,3,9.17t3.74,9v.68ZM199.42,37.52a9.1,9.1,0,0,0,4.86-1.31,10.63,10.63,0,0,0,3.54-3.64A18.65,18.65,0,0,0,210,27a31.54,31.54,0,0,0,.73-7,32.18,32.18,0,0,0-.73-7,18.64,18.64,0,0,0-2.14-5.58,10.63,10.63,0,0,0-3.54-3.64,9.1,9.1,0,0,0-4.85-1.31h-2V37.52Z" transform="translate(-0.37 -0.14)"/><path class="cls-1" d="M259.43,73.93v-.68l3.3-6.41L259,47.72H244.38l-2.52,14.85,5.24,10.68v.68H233.5v-.68l6.7-10.68,9.32-53.3-2.23-7.48V1.11h14.27l13.5,65.73,4.47,6.41v.68Zm-8.06-63.4H251l-6.41,35.73h14.18Z" transform="translate(-0.37 -0.14)"/><path class="cls-1" d="M314.35,73.93v-.68L319,66.84V8.2l-4.66-6.41V1.11h17.77a35.1,35.1,0,0,1,8.55,1,19.82,19.82,0,0,1,7.09,3.25,16.43,16.43,0,0,1,4.81,5.68,17.54,17.54,0,0,1,1.8,8.2A19.06,19.06,0,0,1,353.24,26a15.29,15.29,0,0,1-3.11,5.1,17.14,17.14,0,0,1-4.71,3.54,23.16,23.16,0,0,1-6,2.09,26.6,26.6,0,0,1,6.8,2.18,19,19,0,0,1,5.34,3.79A16,16,0,0,1,355,48.06,18.7,18.7,0,0,1,356.2,55a17.94,17.94,0,0,1-1.94,8.64A16.49,16.49,0,0,1,349,69.51a23.47,23.47,0,0,1-7.72,3.35,38.25,38.25,0,0,1-9.13,1.07Zm18.25-1.46a9.76,9.76,0,0,0,8.88-4.81q3-4.81,3-12.67a31,31,0,0,0-.73-6.89,17.7,17.7,0,0,0-2.23-5.58,11.48,11.48,0,0,0-3.74-3.74,9.71,9.71,0,0,0-5.15-1.36h-2V72.47Zm.2-36.41a8.14,8.14,0,0,0,7.57-4.61q2.52-4.61,2.52-12.18T340.38,7.13a8.13,8.13,0,0,0-7.57-4.66h-2.23V36.07Z" transform="translate(-0.37 -0.14)"/><path class="cls-1" d="M399.8,73.93a66.9,66.9,0,0,1-3.25-8.11q-1.51-4.51-2.77-9.27t-2.23-9.42q-1-4.66-1.46-8.45a36.8,36.8,0,0,1-4.56.29h-2V66.84l4.18,6.41v.68H367.27v-.68l4.66-6.41V8.2l-4.66-6.41V1.11H385a34.69,34.69,0,0,1,8.88,1.12,22.66,22.66,0,0,1,7.48,3.45,17.46,17.46,0,0,1,5.19,5.87,17.44,17.44,0,0,1,1.94,8.5,18.32,18.32,0,0,1-1.17,6.75,16.65,16.65,0,0,1-3.2,5.19,18.54,18.54,0,0,1-4.76,3.74A23.64,23.64,0,0,1,393.49,38h7.57q.68,3.79,1.65,8.16T405,55.1q1.31,4.56,3,9.17t3.74,9v.68ZM385.53,37.52a9.1,9.1,0,0,0,4.86-1.31,10.63,10.63,0,0,0,3.54-3.64A18.65,18.65,0,0,0,396.06,27a31.54,31.54,0,0,0,.73-7,32.18,32.18,0,0,0-.73-7,18.64,18.64,0,0,0-2.14-5.58,10.63,10.63,0,0,0-3.54-3.64,9.1,9.1,0,0,0-4.85-1.31h-2V37.52Z" transform="translate(-0.37 -0.14)"/><path class="cls-1" d="M445.54,73.93v-.68l3.3-6.41-3.69-19.13H430.49L428,62.57l5.24,10.68v.68H419.61v-.68l6.7-10.68,9.32-53.3L433.4,1.79V1.11h14.27l13.5,65.73,4.47,6.41v.68Zm-8.06-63.4h-.39l-6.41,35.73h14.18Z" transform="translate(-0.37 -0.14)"/><path class="cls-1" d="M484.18,73.93,470.88,8.2l-4.47-6.41V1.11H487v.68L483.7,8.2l10.87,59.61h.29l9.71-55.34L499.23,1.79V1.11h13.69v.68l-6.7,10.68L495.45,73.93Z" transform="translate(-0.37 -0.14)"/><path class="cls-1" d="M539.53,73.93v-.68l3.3-6.41-3.69-19.13H524.48L522,62.57l5.24,10.68v.68H513.6v-.68l6.7-10.68,9.32-53.3-2.23-7.48V1.11h14.27l13.5,65.73,4.47,6.41v.68Zm-8.06-63.4h-.39l-6.41,35.73h14.18Z" transform="translate(-0.37 -0.14)"/></svg>